HIERARCHY
ROOT pelvis
{
  OFFSET 0 100 0
  CHANNELS 6 Xposition Yposition Zposition Zrotation Xrotation Yrotation
  JOINT pelvis_right_femur
  {
    OFFSET -10.78128 -3.44521 -0.5502486
    CHANNELS 3 Zrotation Xrotation Yrotation
    JOINT right_femur_tibia
    {
      OFFSET -0.8047443 -44.0398 -0.1307829
      CHANNELS 3 Zrotation Xrotation Yrotation
      JOINT right_tibia_foot
      {
        OFFSET 3.006224 -47.83518 -5
        CHANNELS 3 Zrotation Xrotation Yrotation
        End Site
        {
          OFFSET 0 -5 15
        }
      }
    }
  }
  JOINT pelvis_left_femur
  {
    OFFSET 10.78128 -3.44521 -0.5502486
    CHANNELS 3 Zrotation Xrotation Yrotation
    JOINT left_femur_tibia
    {
      OFFSET 0.8047443 -44.0398 -0.1307829
      CHANNELS 3 Zrotation Xrotation Yrotation
      JOINT left_tibia_foot
      {
        OFFSET -4.370144 -48.10324 -4.275266
        CHANNELS 3 Zrotation Xrotation Yrotation
        End Site
        {
          OFFSET 0 -5 15
        }
      }
    }
  }
  JOINT pelvis_spine1
  {
    OFFSET 0 6.468898 -3.129235
    CHANNELS 3 Zrotation Xrotation Yrotation
    JOINT spine1
    {
      OFFSET 0 23.15396 4.99043
      CHANNELS 3 Zrotation Xrotation Yrotation
      JOINT spine2
      {
        OFFSET 0 20.79997 -5.064912
        CHANNELS 3 Zrotation Xrotation Yrotation
        JOINT neck
        {
          OFFSET 0 14.38658 9.616178
          CHANNELS 3 Zrotation Xrotation Yrotation
          End Site
          {
            OFFSET 0 20 0
          }
        }
      }
      JOINT right_manubrium
      {
        OFFSET -5.722621 16.35077 3.967754
        CHANNELS 3 Zrotation Xrotation Yrotation
        JOINT right_clavicle
        {
          OFFSET -13.16364 1.694482 -4.693211
          CHANNELS 3 Zrotation Xrotation Yrotation
          JOINT right_humerus
          {
            OFFSET -28.5034 -0.3100689 -2.792744
            CHANNELS 3 Zrotation Xrotation Yrotation
            JOINT right_radius
            {
              OFFSET -25.15693 0.02248979 -1.271978
              CHANNELS 3 Zrotation Xrotation Yrotation
              End Site
              {
                OFFSET -15 0 0
              }
            }
          }
        }
      }
      JOINT left_manubrium
      {
        OFFSET 5.722621 16.35077 3.967754
        CHANNELS 3 Zrotation Xrotation Yrotation
        JOINT left_clavicle
        {
          OFFSET 13.16364 1.694482 -4.693211
          CHANNELS 3 Zrotation Xrotation Yrotation
          JOINT left_humerus
          {
            OFFSET 29.39168 -1.063119 -2.237045
            CHANNELS 3 Zrotation Xrotation Yrotation
            JOINT left_radius
            {
              OFFSET 24.59957 -0.9528479 0.9047498
              CHANNELS 3 Zrotation Xrotation Yrotation
              End Site
              {
                OFFSET 15 -0 -0
              }
            }
          }
        }
      }
    }
  }
}
MOTION
Frames: 9
Frame Time: 0.0416666666667
38.05788 101.9633 255.3414 2.34467 -8.196731 -1.401211 -1.298428 25.06249 8.472848 -0 21.37525 -0 7.89951 -13.50715 0.597995 -0.6622655 -26.12263 -5.990991 -0 24.98714 -0 -7.563253 -5.576208 19.16067 -1.163011 -1.059682 10.12489 -2.323688 9.608687 -1.614594 2.655003 21.75058 4.852245 1.487703 -14.71759 7.418496 0.9860186 -22.05951 11.02363 79.98751 21.06783 -4.06297 -0 0 28.57372 -26.55198 13.79702 14.00046 4.320781 -12.74891 -2.8717 -94.68814 22.41061 27.78607 0 0 -7.928443 -3.720245 5.774097 17.91704
39.34151 101.8326 262.8075 2.676432 -8.186344 -1.346264 -2.408494 24.67099 8.069867 -0 28.07293 -0 8.396824 -11.11917 -0.05924576 -2.270186 -23.27338 -7.177736 -0 25.39517 -0 -7.509712 -5.815172 18.62885 -1.669095 -1.748166 9.983033 -2.366553 9.325047 -1.634621 2.809656 21.89965 4.817574 1.374105 -14.62835 7.677222 1.151297 -21.25626 10.61786 80.64139 21.03631 -4.733087 -0 0 27.41543 -26.31488 13.7225 13.71081 4.133953 -12.21828 -2.872452 -94.31695 22.74393 27.42672 0 0 -7.369035 -3.792328 5.83544 18.15955
40.59003 102.3287 270.1804 3.061605 -8.469404 -0.8264523 -3.226402 22.75563 7.325685 -0 35.79299 -0 8.555741 -8.814151 -1.233098 -3.852775 -19.32814 -8.159216 -0 26.15528 -0 -7.339872 -6.525156 18.09561 -2.213387 -2.116345 9.570251 -2.333159 9.187343 -1.730449 2.882451 22.1857 4.824126 1.218965 -14.46757 7.930462 1.562328 -20.16884 10.34098 81.63011 21.25727 -6.005154 -0 0 25.34128 -25.84639 13.75177 13.16764 3.97038 -12.15859 -2.952161 -93.41287 23.17892 26.14707 0 0 -7.519234 -3.656542 6.011088 18.10071
41.76509 103.3594 277.2237 3.366473 -9.032128 0.1375518 -3.4131 18.88588 6.313898 -0 43.69661 -0 8.336925 -7.288237 -2.779694 -5.149472 -14.34097 -8.872825 -0 26.41701 -0 -7.045313 -7.746781 17.52437 -2.610286 -1.981283 8.751153 -2.241283 9.164883 -1.979343 2.823736 22.59354 4.904982 0.9910532 -14.2292 8.181296 2.111716 -19.00764 10.20603 82.86825 21.69144 -7.632548 -0 0 22.74706 -25.16898 13.85865 12.47293 3.807249 -12.58197 -3.134786 -91.97757 23.67975 23.94162 0 0 -8.332799 -3.293361 6.29841 17.7368
42.85593 104.7559 283.7963 3.503096 -9.680984 1.371357 -3.034016 13.22933 5.211634 -0 49.9618 -0 7.773498 -6.733217 -4.316503 -5.981146 -8.675822 -9.343743 -0 25.76109 -0 -6.749304 -9.17224 16.90923 -2.784048 -1.456822 7.564914 -2.069864 9.172338 -2.426983 2.672749 23.08588 5.052206 0.7133126 -13.91093 8.447632 2.605276 -17.88648 10.13619 84.29167 22.24398 -9.436558 -0 0 20.08409 -24.34415 13.99162 11.74795 3.695898 -13.36787 -3.415355 -90.14992 24.17016 20.95168 0 0 -9.723156 -2.729144 6.682894 17.10632
43.86007 106.2795 289.8495 3.461214 -10.15357 2.694807 -2.371516 6.43394 4.208286 -0 52.89796 -0 6.947557 -6.878363 -5.536977 -6.317673 -2.860526 -9.67047 -0 24.10961 -0 -6.565445 -10.51337 16.23175 -2.76982 -0.7997033 6.152386 -1.801098 9.107837 -3.092419 2.5167 23.59753 5.222678 0.4366244 -13.53052 8.738599 2.844355 -16.82515 10.01119 85.83548 22.80168 -11.32033 -0 0 17.70166 -23.44715 14.09148 11.08398 3.723597 -14.3611 -3.756071 -88.11041 24.57721 17.3887 0 0 -11.61505 -2.011239 7.148878 16.24612
44.78614 107.5762 295.4849 3.363271 -10.18531 4.088278 -1.797933 -0.4570101 3.427047 -0 51.74861 -0 5.993902 -7.048076 -6.420308 -6.315025 2.561284 -9.971125 -0 21.73303 -0 -6.500485 -11.76346 15.44299 -2.720224 -0.3020042 4.720499 -1.455658 8.880876 -3.968639 2.460784 24.0269 5.340958 0.2221772 -13.14015 9.033558 2.681258 -15.75827 9.69466 87.4072 23.25423 -13.26743 -0 0 15.74359 -22.55242 14.0995 10.50895 3.981039 -15.42906 -4.081078 -86.01816 24.85913 13.49677 0 0 -13.95827 -1.193697 7.685881 15.16814
45.64777 108.346 300.9498 3.322869 -9.798537 5.57229 -1.554066 -6.851928 2.886911 -0 46.79562 -0 4.950909 -7.083275 -7.070618 -6.155785 7.412137 -10.25858 -0 19.17038 -0 -6.500486 -13.04727 14.56336 -2.774864 -0.03395049 3.432301 -1.068332 8.490189 -4.964753 2.551077 24.3195 5.341485 0.1023431 -12.80115 9.278338 2.1621 -14.66607 9.202283 88.85511 23.56409 -15.2339 -0 0 14.10753 -21.70166 14.00115 9.978919 4.469089 -16.51105 -4.339192 -83.97558 25.01177 9.498619 0 0 -16.64635 -0.310823 8.283789 13.89487
46.46082 108.4415 306.498 3.404488 -9.148954 7.0832 -1.720195 -12.45611 2.505042 -0 39.00461 -0 3.803361 -7.14856 -7.613959 -5.999533 11.69659 -10.48072 -0 16.99285 -0 -6.51669 -14.461 13.65683 -2.995477 0.06222782 2.409224 -0.6773283 7.99458 -5.924246 2.772587 24.46275 5.199239 0.07779415 -12.56837 9.422847 1.450357 -13.55074 8.650368 90.06829 23.75103 -17.16007 -0 0 12.58404 -20.88982 13.81337 9.41459 5.1221 -17.58736 -4.494941 -82.06112 25.04762 5.593881 0 0 -19.52243 0.6185615 8.928147 12.47082
